<?xml version="1.0" standalone="no"?>
<!DOCTYPE svg PUBLIC "-//W3C//DTD SVG 20010904//EN"
 "http://www.w3.org/TR/2001/REC-SVG-20010904/DTD/svg10.dtd">
<svg version="1.0" xmlns="http://www.w3.org/2000/svg"
 width="2304.000000pt" height="2304.000000pt" viewBox="0 0 2304.000000 2304.000000"
 preserveAspectRatio="xMidYMid meet">
<metadata>
Created by potrace 1.14, written by Peter Selinger 2001-2017
</metadata>
<g transform="translate(0.000000,2304.000000) scale(0.100000,-0.100000)"
fill="#000000" stroke="none">
<path d="M13556 13762 c-2 -1 -42 -4 -89 -6 -48 -3 -95 -7 -105 -10 -9 -3 -31
-8 -47 -10 -51 -7 -80 -15 -155 -42 -3 -1 -16 -5 -28 -9 -84 -27 -260 -129
-336 -194 -37 -32 -122 -118 -157 -157 -94 -109 -210 -335 -233 -455 -2 -13
-9 -44 -14 -69 -20 -90 -24 -180 -23 -638 0 -257 0 -478 0 -492 l1 -25 397 0
398 0 2 495 c1 475 2 497 22 554 35 100 104 175 200 221 108 52 337 51 449 -2
64 -30 158 -118 168 -157 3 -14 9 -26 13 -26 4 0 14 -24 21 -52 11 -42 14
-155 15 -533 0 -264 3 -484 7 -490 4 -6 145 -9 395 -9 213 1 390 2 393 3 8 1
5 1064 -2 1077 -4 5 -9 30 -13 54 -11 72 -40 175 -70 245 -10 22 -16 40 -14
40 1 0 -10 19 -24 42 -15 24 -27 45 -27 48 0 6 -51 86 -60 95 -3 3 -18 23 -34
45 -46 64 -194 203 -271 253 -104 69 -287 152 -365 166 -14 2 -46 9 -71 15
-52 12 -336 31 -343 23z"/>
<path d="M376 13650 l-59 -5 1 -60 c3 -92 3 -199 2 -210 -2 -13 -1 -130 1
-141 1 -5 1 -13 0 -19 -4 -22 -3 -246 1 -251 3 -2 2 -24 -2 -49 -4 -24 -4 -49
0 -55 3 -6 4 -32 0 -59 -3 -27 -3 -57 1 -67 3 -11 3 -28 -1 -38 -4 -11 -4 -37
0 -58 4 -21 5 -40 1 -42 -3 -2 -4 -43 -1 -91 3 -48 3 -89 1 -91 -4 -4 -4 -119
0 -140 1 -5 0 -13 -1 -19 -2 -12 -2 -198 1 -211 1 -5 0 -13 -1 -19 -4 -22 1
-208 6 -216 3 -5 2 -9 -3 -9 -4 0 -7 -44 -6 -97 4 -120 5 -235 3 -248 -2 -13
-1 -130 1 -141 1 -5 1 -13 0 -19 -4 -22 -3 -246 1 -251 3 -2 2 -24 -2 -49 -4
-24 -4 -49 0 -55 3 -6 4 -32 0 -59 -3 -27 -3 -57 1 -68 3 -10 3 -27 -1 -37 -3
-11 -3 -37 0 -58 4 -21 5 -40 1 -42 -3 -2 -4 -43 -1 -91 3 -48 3 -89 1 -91 -4
-4 -4 -119 0 -140 1 -5 0 -13 -1 -19 -2 -12 -2 -198 1 -211 1 -5 0 -13 -1 -19
-4 -22 1 -208 6 -216 3 -5 2 -9 -3 -9 -4 0 -7 -44 -6 -97 3 -117 5 -235 3
-245 -2 -9 -2 -83 -1 -123 l1 -25 961 0 960 0 -1 48 c-1 26 -1 52 0 57 0 6 0
66 0 135 -1 69 -1 132 -1 140 0 8 0 33 0 55 0 22 0 47 0 55 3 111 0 195 -8
199 -5 3 -251 6 -546 6 -295 0 -539 3 -541 7 -3 4 -5 807 -5 1783 l0 1775
-107 0 c-59 0 -217 1 -352 3 -135 1 -272 0 -304 -3z"/>
<path d="M2873 13650 l-121 -5 0 -2127 -1 -2128 410 0 409 0 0 53 c1 67 1
4119 0 4172 l0 40 -288 0 c-158 0 -342 -2 -409 -5z"/>
<path d="M4179 13650 l-95 -5 0 -2127 0 -2128 413 0 413 0 1 1213 c0 1320 -4
1238 54 1079 15 -39 28 -78 29 -85 2 -6 8 -23 14 -37 6 -14 23 -59 37 -100 15
-41 32 -88 38 -105 7 -16 12 -32 13 -35 0 -3 3 -12 7 -20 17 -44 69 -187 72
-200 2 -8 34 -96 70 -195 37 -99 68 -184 69 -190 2 -5 6 -17 9 -25 4 -8 25
-67 47 -130 23 -63 45 -124 50 -135 9 -22 54 -147 56 -155 0 -3 4 -12 7 -20 3
-8 27 -73 52 -145 25 -71 55 -152 66 -179 10 -27 19 -53 19 -58 0 -6 6 -24 14
-41 14 -32 79 -209 132 -360 l27 -77 385 2 386 3 1 2123 c0 1168 -3 2126 -6
2128 -5 3 -528 6 -759 4 l-56 0 1 -1162 c0 -640 -1 -1167 -3 -1172 -4 -7 -38
76 -47 114 -3 16 -41 122 -55 155 -4 11 -22 63 -40 115 -18 52 -36 104 -40
115 -12 29 -23 59 -26 70 -1 6 -25 75 -54 155 -29 80 -53 150 -54 155 -4 12
-15 43 -26 70 -5 11 -14 38 -21 60 -6 22 -14 45 -18 50 -3 6 -6 15 -7 20 -1 6
-26 75 -54 155 -60 167 -90 251 -94 265 -2 6 -6 18 -10 27 -4 9 -9 22 -10 30
-2 7 -7 24 -13 38 -5 14 -27 75 -47 135 -21 61 -41 119 -46 130 -11 28 -23 58
-26 70 -3 11 -62 182 -71 205 -4 8 -18 49 -32 90 -43 124 -2 111 -362 113
-173 1 -357 0 -410 -3z"/>
<path d="M7088 13652 l-46 -3 -4 -45 c-2 -25 0 -48 5 -51 4 -2 5 -9 2 -14 -3
-5 -6 -55 -5 -111 1 -134 0 -182 -5 -186 -2 -2 0 -14 4 -26 5 -11 5 -30 1 -40
-3 -11 -4 -37 0 -58 4 -20 5 -40 2 -42 -6 -7 -6 -105 0 -111 3 -3 2 -25 -2
-50 -4 -24 -3 -50 1 -57 4 -6 6 -15 4 -19 -4 -5 -5 -46 -5 -124 1 -53 1 -101
1 -110 -3 -163 -3 -227 1 -230 2 -2 1 -32 -2 -65 -3 -33 -4 -63 -2 -65 4 -3 5
-134 2 -152 -2 -11 -1 -128 1 -139 1 -5 0 -13 -1 -19 -2 -12 -2 -128 1 -141 1
-5 0 -13 -1 -19 -2 -12 -2 -128 1 -141 1 -5 0 -13 -1 -19 -2 -12 -2 -198 1
-211 1 -5 1 -13 0 -19 -1 -5 -2 -55 -1 -110 1 -131 1 -123 0 -178 -1 -26 1
-51 5 -56 3 -5 2 -12 -3 -15 -5 -3 -6 -28 -2 -56 4 -27 4 -50 1 -50 -3 0 -5
-26 -3 -57 3 -67 3 -65 3 -118 0 -22 -1 -49 -1 -60 0 -11 0 -42 0 -68 0 -27 1
-51 4 -55 2 -4 0 -16 -4 -26 -3 -11 -3 -37 0 -58 4 -21 5 -38 1 -38 -3 0 -5
-26 -3 -57 1 -32 3 -62 3 -68 0 -5 0 -58 -1 -117 -1 -59 0 -111 3 -115 2 -4 1
-17 -3 -27 -3 -11 -3 -37 0 -58 4 -21 5 -38 1 -38 -3 0 -5 -26 -3 -57 3 -67 3
-65 3 -118 -1 -63 -1 -77 0 -130 0 -27 0 -54 0 -60 0 -5 0 -41 0 -80 0 -38 -1
-82 -1 -97 l0 -28 960 0 960 0 1 48 c1 26 0 51 -1 57 -1 5 -1 17 -1 25 0 25 1
144 0 160 0 31 0 106 2 130 0 14 1 31 0 38 0 6 0 41 0 77 0 36 0 73 -1 83 0 9
0 31 0 47 l0 30 -546 0 c-300 0 -549 2 -553 5 -3 3 -6 247 -6 543 0 530 0 537
20 538 11 0 238 2 505 2 l485 2 0 347 0 348 -502 -3 c-439 -2 -502 0 -505 13
-2 8 -4 254 -3 545 l0 530 547 1 c301 0 550 3 554 6 7 7 9 247 2 254 -3 2 -2
19 1 37 4 18 4 51 1 75 -4 23 -4 42 -1 42 3 0 6 23 6 50 0 28 -4 50 -8 50 -5
0 -6 4 -3 9 3 4 6 33 6 62 0 30 0 66 0 82 l0 27 -182 0 c-101 0 -511 2 -913 3
-401 1 -751 1 -777 -1z"/>
<path d="M20098 13650 l-176 -5 185 -465 c102 -256 191 -478 198 -495 7 -16
25 -61 40 -100 15 -38 33 -83 40 -100 31 -72 44 -105 40 -105 -3 0 4 -17 14
-37 11 -21 67 -159 126 -308 133 -339 144 -365 155 -390 5 -11 32 -78 60 -150
28 -71 55 -140 60 -152 6 -13 14 -33 19 -45 5 -13 20 -50 33 -83 l25 -60 -1
-882 -1 -883 403 0 c376 0 402 1 403 18 0 9 1 406 1 882 l1 865 109 275 c60
151 115 289 123 307 8 17 15 34 15 38 0 4 7 21 14 38 8 18 38 91 66 162 28 72
55 139 60 150 5 11 74 184 154 385 80 201 150 379 157 395 7 17 13 33 14 38 2
4 4 10 5 15 1 4 2 10 1 15 0 4 3 7 9 7 5 0 10 7 10 15 0 8 9 34 19 58 35 78
239 592 236 595 -5 5 -835 3 -844 -2 -6 -4 -28 -66 -37 -106 0 -3 -3 -12 -7
-20 -6 -17 -48 -152 -57 -185 -2 -5 -13 -39 -26 -75 -13 -36 -24 -73 -24 -82
0 -10 -4 -18 -8 -18 -4 0 -8 -8 -9 -17 -1 -10 -13 -52 -26 -93 -35 -105 -140
-433 -143 -445 -2 -9 -83 -262 -123 -385 -10 -30 -33 -102 -51 -160 -33 -103
-50 -140 -50 -108 0 8 -25 93 -56 189 -124 388 -210 662 -212 679 -1 3 -8 21
-16 40 -8 19 -14 38 -15 43 0 8 -83 273 -113 362 -11 33 -21 67 -23 75 -4 20
-96 304 -100 308 -5 5 -500 7 -677 2z"/>
<path d="M9999 13593 c-1 -32 -1 -62 0 -66 2 -13 3 -49 2 -127 0 -41 0 -82 0
-90 0 -8 0 -58 -1 -110 0 -52 0 -129 0 -170 l1 -75 337 0 337 0 2 -95 c1 -52
3 -106 3 -120 1 -22 2 -670 1 -710 0 -12 0 -393 0 -425 0 -18 0 -509 0 -530
-1 -33 -1 -259 0 -275 0 -21 0 -671 0 -690 -1 -15 0 -406 0 -425 0 -5 0 -72
-1 -148 -1 -76 0 -140 3 -143 6 -6 808 -6 815 0 3 3 6 806 6 1783 l1 1778 338
0 c330 0 337 0 338 20 1 26 1 646 0 663 -1 9 -226 12 -1091 12 l-1090 0 -1
-57z"/>
<path d="M15249 13633 c-3 -135 0 -4236 4 -4240 7 -6 965 -5 1042 2 28 2 59 6
70 8 11 3 40 8 65 11 69 11 235 65 314 104 88 42 187 108 252 167 27 24 52 44
57 45 4 0 7 4 7 9 0 5 15 24 33 43 53 55 127 150 127 162 0 3 7 14 16 25 24
28 92 155 126 236 16 39 33 79 38 90 20 46 75 222 85 275 2 8 8 33 13 55 6 22
13 56 16 76 3 20 8 42 10 50 5 14 13 64 22 134 3 22 7 56 10 75 35 227 39 802
8 1044 -2 17 -6 51 -9 76 -10 84 -45 280 -55 305 -5 14 -8 25 -5 25 2 0 -5 29
-15 65 -10 36 -16 65 -13 65 3 0 1 6 -4 13 -9 10 -20 45 -29 84 -4 23 -98 249
-117 283 -67 120 -125 211 -176 275 -38 46 -212 215 -222 215 -5 0 -17 8 -27
18 -28 27 -151 93 -252 135 -43 18 -128 42 -195 56 -27 6 -63 14 -80 18 -16 3
-274 8 -572 10 -520 4 -543 4 -544 -14z m916 -693 c0 0 18 -3 40 -5 62 -6 85
-13 140 -40 52 -25 145 -107 182 -161 73 -104 150 -309 178 -474 3 -19 8 -48
11 -65 6 -29 7 -41 18 -135 22 -178 27 -282 29 -505 0 -104 -3 -248 -7 -320
-12 -195 -11 -183 -31 -330 -2 -16 -6 -39 -8 -50 -2 -11 -7 -36 -11 -55 -11
-60 -14 -73 -30 -138 -89 -342 -259 -539 -480 -558 -34 -3 -76 -7 -93 -8 -33
-3 -33 -3 -34 43 0 25 0 664 -1 1420 0 906 3 1376 10 1380 8 5 87 6 87 1z"/>
<path d="M18430 13603 c-6 -27 -13 -59 -15 -73 -2 -14 -18 -88 -34 -166 -17
-77 -33 -156 -36 -175 -3 -19 -12 -61 -20 -94 -8 -33 -17 -76 -20 -95 -4 -19
-15 -73 -25 -120 -10 -47 -21 -96 -24 -110 -2 -14 -11 -57 -20 -95 -8 -39 -17
-84 -20 -100 -3 -16 -10 -51 -16 -79 -6 -28 -12 -60 -14 -71 -3 -11 -10 -42
-16 -70 -7 -27 -14 -63 -17 -80 -3 -16 -14 -70 -25 -120 -10 -49 -21 -101 -24
-115 -10 -53 -14 -75 -50 -240 -14 -69 -28 -132 -29 -140 -1 -8 -6 -33 -11
-55 -11 -55 -11 -55 -14 -57 -1 -2 -3 -12 -4 -23 -4 -29 -21 -109 -56 -275
-17 -80 -33 -152 -34 -160 -10 -49 -20 -96 -21 -100 -1 -3 -5 -25 -10 -50 -5
-25 -9 -47 -10 -50 0 -3 -4 -21 -8 -40 -7 -35 -13 -60 -22 -102 -3 -13 -8 -36
-10 -53 -3 -16 -8 -37 -10 -45 -2 -8 -6 -26 -9 -40 -2 -14 -14 -70 -26 -125
-12 -55 -24 -110 -26 -122 -2 -13 -6 -33 -8 -45 -2 -13 -13 -63 -24 -113 -11
-49 -23 -103 -25 -120 -3 -16 -13 -64 -22 -105 -9 -41 -18 -86 -21 -100 -2
-14 -13 -65 -24 -115 -11 -49 -22 -101 -24 -115 -5 -28 -13 -65 -27 -128 -5
-23 -12 -59 -15 -80 -3 -20 -8 -40 -11 -44 -4 -7 104 -9 502 -9 52 0 146 0
209 1 l114 0 7 53 c4 28 9 61 11 72 3 11 7 39 10 61 2 23 7 53 10 65 2 13 7
42 9 64 3 22 7 51 10 65 4 14 8 43 11 65 3 22 7 51 10 65 3 14 7 39 9 55 12
84 15 103 21 140 9 57 12 74 19 94 5 16 35 17 400 17 445 -1 397 8 410 -76 12
-83 25 -167 29 -190 3 -14 12 -70 20 -125 9 -55 18 -111 20 -125 2 -14 8 -47
12 -75 4 -27 8 -52 9 -55 0 -3 5 -32 9 -65 10 -74 14 -97 20 -102 2 -2 91 -4
197 -4 107 0 292 0 412 1 151 0 216 3 212 11 -4 5 -8 20 -10 32 -5 32 -14 75
-26 128 -6 26 -12 53 -13 60 -4 20 -18 91 -23 114 -2 11 -8 43 -14 70 -6 28
-12 59 -14 70 -2 11 -4 20 -5 20 -1 0 -4 14 -6 30 -3 17 -11 57 -19 90 -8 33
-16 74 -19 90 -6 36 -55 272 -63 300 -5 21 -22 105 -28 140 -2 11 -6 31 -9 45
-11 46 -47 215 -51 240 -3 14 -7 36 -10 50 -3 14 -10 45 -15 70 -4 25 -25 122
-44 215 -20 94 -38 179 -40 190 -2 11 -9 40 -15 65 -5 25 -12 56 -14 70 -3 14
-21 104 -41 200 -20 96 -39 191 -42 210 -3 19 -10 43 -15 53 -5 9 -8 17 -5 17
2 0 -1 19 -6 43 -5 23 -12 52 -14 65 -2 12 -6 32 -8 45 -2 12 -14 65 -25 117
-11 52 -23 110 -26 129 -3 19 -7 37 -9 40 -2 3 -7 24 -11 46 -4 22 -8 45 -9
50 -6 24 -26 122 -30 148 -3 15 -7 35 -10 45 -3 9 -7 28 -10 42 -2 14 -12 58
-20 97 -9 40 -18 87 -21 105 -3 18 -10 48 -15 66 -4 17 -6 32 -3 32 3 0 0 6
-6 13 -6 8 -9 16 -6 19 3 2 0 19 -5 38 -5 18 -12 51 -16 74 -3 22 -7 43 -9 47
-2 3 -7 21 -10 40 -3 19 -13 66 -21 104 -8 39 -18 84 -21 100 -3 17 -6 35 -7
40 -2 6 -9 38 -16 73 l-13 62 -462 0 -463 0 -12 -47z m501 -1004 c11 -68 22
-135 24 -149 2 -14 10 -65 19 -115 9 -49 18 -106 20 -125 3 -19 8 -46 10 -60
3 -13 8 -41 11 -62 13 -85 16 -104 19 -123 2 -11 7 -42 10 -70 4 -27 9 -57 11
-65 2 -8 7 -35 10 -60 3 -25 8 -52 10 -60 3 -8 7 -33 10 -55 5 -39 10 -72 20
-125 3 -14 7 -43 11 -65 3 -22 7 -47 9 -55 3 -8 7 -35 10 -60 3 -25 17 -110
30 -190 13 -80 26 -161 29 -180 3 -19 8 -44 10 -55 4 -21 1 -21 -297 -20
l-302 0 1 25 c1 14 4 38 7 54 4 16 9 50 13 75 4 25 8 55 10 66 5 25 15 84 19
110 4 29 34 206 39 231 5 26 12 73 21 134 3 25 8 52 10 60 5 18 13 63 19 111
9 61 17 114 21 129 3 8 7 33 10 55 4 22 8 51 11 65 2 14 7 43 10 65 3 22 8 51
10 65 2 14 11 61 19 105 8 43 12 81 10 83 -2 3 0 12 4 21 5 9 11 39 15 66 3
28 8 59 10 70 2 11 9 52 16 92 6 39 13 80 15 90 2 10 4 27 4 37 2 41 12 4 32
-115z"/>
<path d="M12369 11345 c-2 -166 2 -979 6 -1015 7 -66 15 -109 31 -167 9 -29
15 -54 14 -55 -3 -6 43 -117 77 -183 52 -103 128 -208 208 -289 67 -67 186
-166 200 -166 3 0 26 -13 50 -30 24 -16 46 -30 49 -30 2 0 33 -13 68 -29 68
-31 173 -66 229 -75 19 -3 45 -8 59 -11 27 -6 176 -18 200 -16 8 1 31 1 50 0
42 -1 34 -2 145 5 79 5 130 11 130 16 0 1 16 3 35 6 83 10 246 75 372 146 37
21 150 109 197 152 53 51 146 164 188 231 37 59 104 201 112 237 1 4 8 27 17
50 8 23 17 55 19 72 6 37 13 72 21 106 6 26 13 1057 7 1075 -2 6 -144 10 -400
10 l-397 -1 -2 -499 c-1 -275 -2 -500 -3 -500 -2 0 -4 -7 -6 -15 -9 -35 -32
-87 -52 -120 -57 -92 -190 -169 -287 -166 -25 0 -46 -1 -46 -4 0 -6 -83 -4
-164 5 -150 16 -294 150 -322 300 -4 22 -8 254 -9 515 -1 261 -3 477 -3 480
-1 3 -180 5 -397 5 l-395 0 -1 -40z"/>
</g>
</svg>
